<?xml version="1.0" encoding="UTF-8"?>
<svg id="Layer_2" data-name="Layer 2" xmlns="http://www.w3.org/2000/svg" viewBox="0 0 1439.4 915.07">
  <defs>
    <style>
      .cls-1 {
        fill: #fefefe;
      }

      .cls-1, .cls-2, .cls-3, .cls-4, .cls-5, .cls-6, .cls-7, .cls-8, .cls-9, .cls-10, .cls-11, .cls-12, .cls-13 {
        stroke-width: 0px;
      }

      .cls-2 {
        fill: #78833c;
      }

      .cls-3 {
        fill: #445568;
      }

      .cls-4 {
        fill: #78823d;
      }

      .cls-5 {
        fill: #281d21;
      }

      .cls-6 {
        fill: #45576b;
      }

      .cls-7 {
        fill: #57542c;
      }

      .cls-8 {
        fill: #77823c;
      }

      .cls-9 {
        fill: #445567;
      }

      .cls-10 {
        fill: #302c32;
      }

      .cls-11 {
        fill: #445669;
      }

      .cls-12 {
        fill: #3b4857;
      }

      .cls-13 {
        fill: #435567;
      }
    </style>
  </defs>
  <g id="Layer_1-2" data-name="Layer 1">
    <g>
      <path class="cls-1" d="m0,914.15h1438.48V0c.3.15.86.29.87.46.08,1.21.04,2.44.04,3.65v910.95c-478.43,0-956.85,0-1435.28-.04-1.37,0-2.74-.57-4.12-.88Z"/>
      <path class="cls-4" d="m438.83,198.35c.79,3.48,2.62.98,3.64.42,11.38-6.16,22.69-12.46,34.04-18.7,35.1-19.3,70.23-38.54,105.29-57.91,39.99-22.1,79.93-44.27,119.84-66.51,6.2-3.46,12.07-3.4,18.18-.06,65.9,35.99,131.78,71.99,197.72,107.91,49.89,27.17,99.84,54.22,149.76,81.34,26.1,14.18,52.18,28.39,78.25,42.62,6.82,3.72,9.26,10.71,6.03,16.93-3.5,6.73-10.3,8.85-17.56,4.95-31.13-16.72-62.18-33.58-93.25-50.41-24.51-13.27-49.02-26.52-73.5-39.84-56.18-30.57-112.34-61.18-168.51-91.78-27.95-15.23-55.91-30.43-83.78-45.8-3.19-1.76-5.59-1.7-8.72.04-53.13,29.5-106.29,58.94-159.5,88.28-36.01,19.85-72.16,39.45-108.16,59.32-46,25.39-91.91,50.95-137.86,76.43-4,2.22-7.96,4.49-11.98,6.66-7.18,3.88-14.54,1.95-18-4.67-3.32-6.36-.69-13.17,6.48-17.15,43.95-24.37,87.85-48.84,131.9-73.03,4.13-2.27,4.95-5.09,4.94-9.13-.04-31.38,0-62.76-.01-94.14,0-11.75,5.5-17.23,17.32-17.22,26.06,0,52.12,0,78.18,0,8.43,0,12.72,4.25,12.74,12.54.01,7.76-4.95,12.85-12.81,12.88-19.05.07-38.1-.19-57.14.21-6.05.13-9.4-3.39-13.81-7.59,0,5.05,0,9.33,0,13.61.11,4.99.22,9.98.32,14.96,0,17.38,0,34.76,0,52.14,0,.9,0,1.81-.01,2.71Z"/>
      <path class="cls-3" d="m542.04,474.65c23.28,7.02,41.87,18.77,54.02,39.36,5.84,9.9,9.13,20.65,10.09,31.94,2.4,28.3-4.47,53.49-26.21,73.23-12.56,11.41-27.59,18.3-43.56,23.29-15.65,4.88-31.74,6.8-48.15,6.75-52.42-.14-104.85-.12-157.27.01-4.35.01-5.64-1.13-5.63-5.56.12-106.64.12-213.28-.01-319.91,0-4.6,1.14-5.88,5.8-5.86,55.17.2,110.34-.21,165.5.4,25.39.28,49.61,6.47,69.99,22.62,18.41,14.58,28.06,33.84,28.82,57.62.55,17.46-2.64,33.62-13.44,47.73-8.79,11.5-19.97,19.94-33.32,25.52-1.93.81-3.84,1.64-6.63,2.84Zm-193.76,152.39c2.56,0,4.35,0,6.15,0,44.64,0,89.28.11,133.92-.06,17.92-.07,35.47-2.63,52.03-10,15.4-6.85,28.29-16.53,36.37-31.82,5.25-9.92,5.94-20.5,5.83-31.44-.18-18.55-7.92-33.27-22.12-44.56-18.5-14.72-40.46-20.51-63.5-20.83-47.68-.66-95.37-.18-143.05-.41-4.81-.02-5.76,1.47-5.74,5.94.16,42.64.1,85.29.1,127.93,0,1.5,0,3,0,5.25Zm.26-161.96c1.84.1,3.04.22,4.25.22,44.49,0,88.98.24,133.47-.15,15.05-.13,30.07-2.08,44.18-7.97,21.2-8.85,37.71-22.11,40.61-46.71,2.56-21.76-4.8-42.66-25.53-55.62-17.54-10.97-37.2-14.26-57.21-14.5-44.94-.53-89.89-.08-134.84-.24-4.39-.02-5.27,1.41-5.26,5.43.12,38.23.06,76.46.07,114.69,0,1.48.15,2.97.25,4.85Z"/>
      <path class="cls-3" d="m1141.19,486.28c-.13,25.7,2.58,50.73-7.06,74.77-9.94,24.79-25.67,44.68-48.04,59.34-21.19,13.87-44.21,23.12-69.2,27.16-22.36,3.62-44.82,3.46-67.32.87-22.49-2.58-43.79-8.96-63.86-19.35-43.23-22.4-69.78-57.58-78.92-105.33-6.26-32.69-5.7-65.37,4.36-97.43,11.72-37.37,34.35-66.08,68.64-85.37,24.96-14.05,51.93-21.32,80.32-23.77,31.75-2.74,62.91-.16,93.06,10.84,45.76,16.69,72.98,49.42,83.38,96.63.1.44.11.91.09,1.36,0,.29-.13.58-.38,1.64-7.48,0-15.16.1-22.83-.15-.81-.03-1.91-2.04-2.26-3.3-4.22-15.08-10.11-29.28-19.99-41.7-12.24-15.38-28.12-25.37-46.17-32.38-17.05-6.62-34.77-9.35-52.98-10.37-27.75-1.54-54.66,1.92-80.5,12.12-43.29,17.07-70.42,48.38-80.77,93.77-4.49,19.71-4.63,39.7-2.51,59.83,2.3,21.9,8.65,42.18,20.97,60.56,17.25,25.74,41.53,41.87,70.26,52.06,15.75,5.58,32.05,8.03,48.69,9.2,25.94,1.82,51.05-1.55,75.21-11.03,24.46-9.59,45.51-23.8,60.23-46.23,11.62-17.7,15.05-37.29,13.86-57.99-.06-1-1.79-2.19-3-2.73-1.01-.46-2.4-.11-3.62-.11-42.83.01-85.65-.04-128.48.13-4.41.02-6.46-.76-5.93-5.69.48-4.37.3-8.83.08-13.24-.16-3.19.92-4.21,4.13-4.17,12.34.16,24.69.06,37.03.06,39.32,0,78.64,0,117.96,0,1.64,0,3.28,0,5.54,0Z"/>
      <path class="cls-2" d="m680.49,340.85c20.26,0,39.9-.04,59.54.12,1.07,0,2.44,1.61,3.09,2.79.52.95.16,2.38.16,3.6,0,94.88,0,189.75.03,284.63,0,8.55-1.04,16.76-6.8,23.57-6.39,7.56-14.63,10.59-24.53,11.05-9.58.45-17.51-2.27-24.23-8.78-5.18-5.01-7.53-11.39-7.56-18.53-.08-19.31,0-38.61-.07-57.92-.04-10.48-.37-20.97-.38-31.45-.05-39.27-.03-78.55-.03-117.82,0-6.99-.06-13.98-.01-20.97.14-21.75.32-43.51.51-65.26.01-1.48.17-2.96.29-5.03Z"/>
      <path class="cls-8" d="m814.85,245.7c0,11.69.06,23.39-.02,35.08-.04,5.81-2.08,8.74-6.41,9.79-6.05,1.46-12.84-1.08-15.12-5.65-3.08-6.17-4.72-6.55-10.99-3.57-2.24,1.06-4.94,1.41-7.46,1.58-13.25.85-20.42,9.31-24.96,20.43-1.85,4.53-2.41,9.69-2.9,14.63-.4,4.01-1.97,5.84-5.98,5.63-17.6-.93-35.2-1.8-52.79-2.8-3.52-.2-5.29-3.09-4.82-7.38,1.79-16.26-1.58-31.47-9.72-45.54-8.53-14.74-20.64-19.57-37.16-15.25-17.2,4.5-32.22,13.47-46.91,23.09-2.16,1.42-4.22,3.03-6.48,4.28-1.02.56-2.42.44-3.65.63-.12-1.37-.85-3.1-.27-4.04,3.77-6.23,7.24-12.79,11.89-18.33,14.95-17.79,34.21-29.25,55.73-37.71,26.3-10.33,53.62-11.74,81.26-11.1,13.65.32,27.26,1.77,40.9,2.52,6.53.36,11.16,2.95,14.01,9.08,2.67,5.73,7.01,6.51,12.11,2.93,1.01-.71,2.53-.87,3.84-.93,3.19-.13,6.4-.07,9.6-.06,5.04,0,6.88,1.54,7.11,6.69.23,5.32.05,10.66.05,15.99h-.84Z"/>
      <path class="cls-13" d="m868.44,759.64c-3.39,0-6.28.25-9.08-.13-1.07-.15-2.54-1.61-2.8-2.72-4.51-18.71-18.25-25.2-35.53-27.49-12.22-1.62-23.8.48-34.43,6.22-15.06,8.13-21.52,21.78-22.17,38.42-.33,8.57.55,17.09,4.17,24.96,4.81,10.45,12.75,17.72,23.82,21.2,16.58,5.2,33.05,5.46,48.77-2.76,9.98-5.22,16.75-13.06,16.65-25.22-.01-1.61.49-3.23.86-5.45-1.7-.14-3.12-.35-4.54-.35-12.04-.02-24.08,0-36.12,0q-5.99,0-5.91-5.92c.02-1.19.15-2.38.26-3.91h55.64c3.47,23.52-1.42,42.59-29.3,53.32-17.74,6.83-36.35,6.02-53.97-1.35-19.97-8.35-29.6-24.46-31.21-45.63-1.01-13.34.88-26.16,8.01-37.8,8.67-14.14,21.66-21.94,37.64-25,19.3-3.7,37.74-1.78,53.81,10.52,9.25,7.08,13.28,17.35,15.42,29.1Z"/>
      <path class="cls-11" d="m734.08,812.6c.06-28.93.1-57.86.24-86.8,0-1.8.48-4.99,1.22-5.14,2.74-.55,5.74-.4,8.5.19.69.15,1.15,2.89,1.16,4.45.1,12.79.07,25.58.07,38.37,0,20.56.05,41.12-.09,61.67-.02,2.42-.8,6.75-1.77,6.91-4.02.66-8.46,1.4-11.72-2.73-6.97-8.84-14.11-17.54-21.2-26.27-17.34-21.36-34.7-42.72-53.09-63.97,0,1.53,0,3.06,0,4.59,0,27.56.02,55.13,0,82.69,0,5.62-4.13,8.34-9.22,5.75-1.08-.55-1.66-3-1.67-4.58-.1-28.48-.07-56.95-.07-85.43,0-7.11,0-14.22,0-21.4,6.81-1.24,11.53-.52,16.15,5.36,22.01,27.97,44.66,55.42,67.12,83.04,1.05,1.29,2.35,2.36,3.54,3.53.28-.08.55-.16.83-.23Z"/>
      <path class="cls-9" d="m1044.81,791h11.22c0,2.51.03,4.75,0,6.99-.16,11.04,5.46,18.3,15.47,21.8,16.56,5.8,33.24,5.17,49.54-1.17,7.15-2.78,10.33-8.67,10.2-16.28-.13-7.73-4.52-12.67-11.4-14.86-8.67-2.76-17.65-4.48-26.43-6.91-10.08-2.78-20.35-5.15-30.04-8.95-10.74-4.22-15.56-13.19-15.31-24.69.25-11.43,5.91-19.69,16.42-23.53,19.54-7.13,39.38-7.69,58.7.92,10.82,4.82,18.31,19.74,16.52,31.3-.95.11-1.97.31-3,.33-7.33.16-7.17.12-8.24-7.08-.98-6.63-3.99-11.96-10.33-15.19-9.31-4.74-19.24-5.57-29.33-4.78-5.71.45-11.47,1.48-16.95,3.13-8.79,2.64-12.69,7.81-12.95,15.62-.23,6.81,3.72,12.52,12.23,15.2,9.98,3.15,20.37,4.98,30.43,7.9,9.45,2.73,19.19,5.13,27.94,9.45,16.54,8.16,18.3,36.98-1.21,46.44-6.58,3.19-13.97,5.46-21.22,6.38-14.75,1.88-29.48,1.21-43.43-5.05-13.39-6.01-21.12-20.9-18.82-36.97Z"/>
      <path class="cls-11" d="m352.3,833.82c-19.2-.03-34.72-3.71-46.95-16.23-8.54-8.74-12.27-19.54-13.81-31.53-1.6-12.38-.46-24.23,4.51-35.62,5.75-13.16,15.74-21.69,29.26-26.39,17.9-6.21,35.6-5.51,53.07,1.39,19.37,7.65,28.59,23.2,30.94,42.83,2,16.72-.73,32.71-11.94,46.41-8.72,10.66-20.31,15.65-33.35,17.97-4.62.82-9.36.94-11.72,1.16Zm45.92-56.14c-.45-4.81-.47-9.7-1.43-14.41-2.3-11.22-7.83-20.29-18.39-25.77-12.31-6.38-25.28-8.37-38.89-6.08-17.15,2.89-30.08,11.14-35.39,28.68-3.02,9.98-3.16,20.18-.99,30.22,2.79,12.9,10,22.8,22.37,28.18,11.85,5.14,24.15,6.61,36.93,3.78,8.31-1.84,16.01-4.74,22.42-10.52,10.12-9.14,13.96-20.68,13.38-34.08Z"/>
      <path class="cls-11" d="m266.12,778.66c11.05,4.18,15.47,13.15,15.52,24.86.04,9.25,0,18.51,0,27.96-2.31.28-4.34.19-6.13.81-3.62,1.24-4.73-.15-4.72-3.58.03-7.77.01-15.54-.1-23.31-.11-7.86-2.87-14.38-10.35-17.89-2.99-1.4-6.34-2.67-9.58-2.82-16.84-.77-33.7-1.15-50.99-1.69-.12,2.52-.26,4.14-.27,5.76-.03,13.26-.2,26.51.07,39.76.08,4.25-2.08,4.22-5.08,4.19-3.03-.03-5.48.35-5.46-4.28.19-34.58.17-69.17.04-103.75-.01-3.73,1.23-4.59,4.73-4.56,17.83.16,35.67-.09,53.49.16,10.73.15,20.92,2.49,28.78,10.58,4.41,4.53,6.63,9.98,6.56,16.49-.08,7.95.65,16.09-5.66,22.3-3.28,3.24-7.11,5.92-10.87,9.01Zm-66.64-5.87c1.13.25,1.7.48,2.28.48,13.85.02,27.71.27,41.55-.07,7.8-.19,15.2-2.18,21.8-6.97,8.94-6.48,10.03-25.63-1.15-30.84-4.88-2.28-10.25-4.57-15.49-4.8-15.04-.65-30.13-.2-45.2-.29-2.76-.02-3.82,1.06-3.79,3.77.08,6.54,0,13.09,0,19.63,0,6.35,0,12.69,0,19.08Z"/>
      <path class="cls-3" d="m533.18,777.25c.88,16.12-4.12,30.75-16.62,42.47-8.94,8.38-20.02,12.24-31.83,13.48-13.86,1.46-27.62.79-40.69-5.23-17.89-8.24-26.18-23.05-28.5-41.63-1.41-11.23-.77-22.53,3.56-33.27,6.02-14.91,16.71-24.79,32.1-29.55,17.18-5.31,34.27-4.85,50.97,1.61,19.25,7.44,31.17,25.65,31.02,46.33-.01,1.68,0,3.35,0,5.79Zm-11-.43c0-1.98.14-3.97-.02-5.94-1.35-15.78-7.58-28.52-22.91-35.05-11.87-5.05-24.16-6.72-37.03-4.08-8.86,1.82-17.15,4.67-23.53,11.2-11.14,11.4-14.65,25.35-12.59,40.92,2.57,19.42,12.61,32.28,31.98,37.61,13.82,3.81,27.24,2.79,40.07-2.84,18.04-7.91,24.37-23.09,24.03-41.83Z"/>
      <path class="cls-11" d="m1255.61,832.67c-3.96,0-7.25.19-10.5-.12-.99-.09-2.2-1.41-2.69-2.45-4.47-9.5-8.92-19.01-13.08-28.64-1.06-2.46-2.16-3.51-4.93-3.49-16.46.13-32.91.16-49.37-.01-3.14-.03-4.51,1.1-5.71,3.84-3.72,8.5-7.91,16.79-11.57,25.31-1.53,3.56-3.44,5.29-7.47,4.87-2.38-.25-4.86.4-7.97.72,9.29-20.1,18.19-39.36,27.1-58.61,7.35-15.88,14.73-31.75,22.05-47.65,2.94-6.39,4.38-7.42,11.19-5.88,1.64.37,3.35,2.46,4.15,4.16,6.77,14.48,13.34,29.05,19.94,43.6,8.49,18.71,16.95,37.43,25.4,56.15,1.11,2.46,2.1,4.97,3.46,8.2Zm-32.63-44.97c-7.71-17.36-15.17-34.13-22.62-50.91-.42.04-.84.08-1.25.12-7.67,16.83-15.35,33.66-23.16,50.79h47.04Z"/>
      <path class="cls-3" d="m940.23,720.63h10.67c.08,1.69.23,3.44.23,5.19.02,21.94-.22,43.88.14,65.81.17,10.49,2.73,20.54,12.94,26.1,9.41,5.12,19.54,6.97,30.37,5.41,7.36-1.06,14.47-2.5,20.35-7.21,8.3-6.63,9.86-16.2,9.97-25.93.25-21.17.09-42.35.1-63.52,0-1.8,0-3.6,0-5.27.82-.38,1.21-.7,1.62-.73q9.29-.76,9.3,8.55c0,19.96.14,39.91-.08,59.87-.06,5.73-.73,11.55-1.91,17.17-2.2,10.48-8.26,18.57-18.21,22.55-18.4,7.36-37.11,7.65-55.44-.42-11.82-5.2-17.77-15.19-19.05-27.56-1.04-10.1-.87-20.34-.97-30.52-.14-14.78-.04-29.55-.04-44.33,0-1.63,0-3.26,0-5.15Z"/>
      <path class="cls-11" d="m621.82,729.47c-1.6.27-3.2.78-4.8.78-19.66.06-39.32.06-58.98.07-1.65,0-3.3,0-5.33,0v38.49h58.8v10.54h-59.04v52.18c-.72.55-.94.87-1.2.9-9.83,1.23-9.8,1.23-9.8-8.62,0-32.91.06-65.82-.08-98.73-.02-4.41.97-5.75,5.74-5.13,5.21.67,10.62-.33,15.94-.29,19.65.13,39.29.38,58.94.59-.06,3.08-.13,6.15-.19,9.23Z"/>
      <path class="cls-6" d="m634.52,727.7c.04,33.79.04,67.58.16,101.36,0,2.87-1.08,3.58-3.76,3.64-7.28.17-7.25.28-7.24-6.9.02-32.12.02-64.23.03-96.35.01-3.01.03-6.02.04-9.03,3.05-.26,6.18-1,9.08-.48.88.16,1.14,3.8,1.68,5.85-.74.21-1.48.41-3.43.95,1.95.54,2.7.74,3.44.94Z"/>
      <path class="cls-7" d="m438.84,143.51c-.11-4.99-.22-9.97-.32-14.96.11,4.99.22,9.98.32,14.96Z"/>
      <path class="cls-10" d="m623.76,720.43c-.01,3.01-.03,6.02-.04,9.03-.63,0-1.26,0-1.9,0,.06-3.08.12-6.15.19-9.23.58.06,1.17.13,1.75.19Z"/>
      <path class="cls-7" d="m438.83,198.35c0-.9,0-1.81.01-2.71,0,.9,0,1.81-.01,2.71Z"/>
      <path class="cls-12" d="m634.52,727.7c-.74-.2-1.49-.41-3.44-.94,1.95-.54,2.69-.75,3.43-.95,0,.63,0,1.26,0,1.9Z"/>
      <path class="cls-5" d="m734.08,812.6c-.27.08-.55.15-.83.23.27-.11.54-.19.83-.23Z"/>
    </g>
  </g>
</svg>